<?xml version="1.0" encoding="utf-8"?>
<!-- Generator: Adobe Illustrator 24.0.1, SVG Export Plug-In . SVG Version: 6.00 Build 0)  -->
<svg version="1.1" id="a6a20553-7f41-452a-acc6-592049258444"
	 xmlns="http://www.w3.org/2000/svg" xmlns:xlink="http://www.w3.org/1999/xlink" x="0px" y="0px" viewBox="0 0 726.3 80.3"
	 style="enable-background:new 0 0 726.3 80.3;" xml:space="preserve">
<style type="text/css">
	.st0{fill-rule:evenodd;clip-rule:evenodd;fill:#FFFFFF;}
</style>
<title>Artboard 1logo-white</title>
<polygon class="st0" points="648.6,0 672.7,0 672.7,58.9 726.3,58.9 726.3,79.1 648.6,79.1 648.6,0 "/>
<path class="st0" d="M538.3,0h22.9v36.3c0.1,8.4,0.4,13.6,0.8,15.8c0.5,3,2.7,5.4,5.7,6.1c3.2,1,9.7,1.4,19.5,1.4
	c5.5,0.1,11-0.1,16.5-0.7c3.1-0.5,5.3-1.4,6.5-2.9c0.9-1.1,1.5-2.3,1.8-3.6c0.5-2.4,0.7-4.9,0.8-7.4c0.2-3.6,0.3-6.5,0.3-8.7V0h22.9
	v36.3c-0.3,12.6-0.6,20.9-1.2,24.8c-0.9,6.6-3.9,11.5-9,14.6c-2.9,1.8-7,3-12.3,3.6c-5.3,0.6-14,0.9-26.1,0.9
	c-9.1,0-16.1-0.2-21-0.5c-4.3-0.3-8.6-0.9-12.9-1.9c-8-2-12.8-7.1-14.1-15.3c-0.5-2.8-0.8-5.7-1-8.5c-0.1-2.5-0.2-8.5-0.3-17.7
	L538.3,0L538.3,0z"/>
<path class="st0" d="M428.5,0h22.9v36.3c0.1,8.4,0.4,13.6,0.8,15.8c0.5,3,2.8,5.4,5.7,6.1c3.2,1,9.7,1.4,19.5,1.4
	c5.5,0.1,11-0.1,16.5-0.7c3.1-0.5,5.2-1.4,6.5-2.9c0.9-1.1,1.5-2.3,1.8-3.6c0.5-2.4,0.7-4.9,0.8-7.4c0.2-3.6,0.3-6.5,0.3-8.7V0h22.9
	v36.3c-0.3,12.6-0.6,20.9-1.2,24.8c-0.9,6.6-3.9,11.5-9,14.6c-2.9,1.8-7,3-12.3,3.6s-14,0.9-26.1,0.9c-9.1,0-16.1-0.2-21-0.5
	c-4.3-0.3-8.6-0.9-12.9-1.9c-8.1-2-12.8-7.1-14.1-15.3c-0.5-2.8-0.8-5.7-1-8.5c-0.1-2.5-0.2-8.5-0.3-17.7L428.5,0L428.5,0z"/>
<path class="st0" d="M393.8,0h22.9v47.3c0,7.5-0.3,12.9-1,16.5c-0.5,3.2-1.9,6.2-3.9,8.8c-2.5,3-6.1,5-10.8,6.1
	c-4.7,1.1-12.4,1.7-22.9,1.7c-12.7,0-21.9-0.7-27.5-2.1c-6.9-1.7-11-6.1-12.4-13c-0.7-3.9-1-7.9-0.9-11.9c0-2.2,0.1-4.9,0.2-8.3
	h22.9c-0.1,2.9,0.1,5.8,0.4,8.7c0.1,1.3,0.7,2.5,1.5,3.4c1.7,1.7,6.5,2.6,14.2,2.6c8.2,0,13.2-0.9,15.2-2.7c0.9-0.8,1.5-1.9,1.7-3.1
	c0.3-2.4,0.5-4.7,0.4-7.1V0z"/>
<path class="st0" d="M238.5,0h10v38.9c0,11.5,0.1,18.4,0.3,20.7c0.3,3,1.1,5.2,2.5,6.6c1.4,1.4,3.6,2.2,6.8,2.7
	c7.5,0.8,15,1.1,22.6,1c13.5,0,22.7-0.4,27.8-1.3c3-0.5,5.1-1.5,6.4-2.9c1.2-1.4,1.9-3.8,2.1-7.1c0.2-3,0.3-9.5,0.4-19.6V0h10v38.9
	c-0.1,10.5-0.3,17.8-0.6,21.8c-0.7,6.9-3.1,11.7-7.2,14.4c-2.9,1.7-6.1,2.8-9.4,3.1c-3.7,0.4-12.7,0.8-27.2,1.2
	c-12.7-0.2-20.3-0.4-22.8-0.5c-2.8-0.2-5.5-0.6-8.2-1.2c-4.8-1-8.9-4.3-10.9-8.8c-1.2-2.6-1.9-5.4-2.1-8.3
	c-0.3-3.2-0.5-10.4-0.6-21.6L238.5,0L238.5,0z"/>
<polygon class="st0" points="106.2,0 126.3,0 167.1,67 207.3,0 227.5,0 227.5,79.1 217.5,79.1 217.5,9.8 213.3,9.8 171.3,79.1 
	163.1,79.1 120.6,9.8 116.2,9.8 116.2,79.1 106.2,79.1 106.2,0 "/>
<path class="st0" d="M76.5,53.1L53,9.3h-4L25.2,53.1H76.5z M90.2,79.1l-8.9-16.7H20.4l-9,16.7H0L42.7,0h16.1l42.6,79.1H90.2z"/>
</svg>
