<?xml version="1.0" encoding="UTF-8"?>
<svg id="Lag_1" data-name="Lag 1" xmlns="http://www.w3.org/2000/svg" xmlns:xlink="http://www.w3.org/1999/xlink" viewBox="0 0 359.3 85">
  <defs>
    <style>
      .cls-1 {
        fill: #fff;
      }

      .cls-2 {
        fill: #c00;
      }

      .cls-3 {
        clip-path: url(#clippath);
      }

      .cls-4 {
        fill: none;
      }
    </style>
    <clipPath id="clippath">
      <rect class="cls-4" width="359.3" height="85"/>
    </clipPath>
  </defs>
  <rect class="cls-2" width="359.3" height="85"/>
  <path class="cls-1" d="M43.4,47.3h20.2l-9.3-15.6h-1.6l-9.3,15.6Zm25.6,9.3l-3.5-5.9h-24l-3.6,5.9h-4.5l16.9-28.2h6.3l16.8,28.2h-4.4Z"/>
  <polygon class="cls-1" points="119.5 56.6 119.5 31.9 117.9 31.9 101.5 56.6 98.3 56.6 81.7 31.9 80 31.9 80 56.6 76 56.6 76 28.4 83.9 28.4 99.9 52.3 115.6 28.4 123.5 28.4 123.5 56.6 119.5 56.6"/>
  <g>
    <path class="cls-1" d="M129,28.4h3.9v13.8c0,4.1,0,6.5,.1,7.4,.1,1.1,.4,1.9,1,2.3,.5,.5,1.4,.8,2.6,.9,2,.2,4.9,.3,8.7,.3,5.2,0,8.8-.2,10.8-.5,1.2-.2,2-.5,2.5-1s.8-1.4,.8-2.5c.1-1.1,.1-3.4,.1-7v-13.7h3.9v13.8c0,3.8-.1,6.3-.2,7.8-.3,2.4-1.2,4.2-2.8,5.1-1,.6-2.2,.9-3.6,1.1-1.4,.2-4.9,.3-10.5,.4-4.9-.1-7.9-.1-8.8-.2-1,0-2-.2-3.2-.4-1.9-.4-3.3-1.4-4.2-3.1-.4-.8-.7-1.8-.8-3-.1-1.1-.2-3.7-.2-7.7v-13.8h-.1Z"/>
    <path class="cls-1" d="M193,28.4h8.9v16.8c0,2.7-.1,4.6-.4,5.9s-.8,2.3-1.5,3.1c-1,1.1-2.4,1.8-4.2,2.2s-4.8,.6-8.9,.6c-4.9,0-8.5-.3-10.7-.8-2.7-.6-4.3-2.2-4.8-4.6-.2-1.1-.4-2.5-.4-4.3,0-.8,0-1.8,.1-3h8.9c0,1.5,0,2.6,.1,3.1s.3,.9,.6,1.2c.7,.6,2.5,.9,5.5,.9,3.2,0,5.1-.3,5.9-.9,.3-.3,.5-.6,.7-1.1,.1-.5,.2-1.3,.2-2.5V28.4h0Z"/>
    <path class="cls-1" d="M207.7,28.4h8.9v12.9c0,3,.2,4.8,.3,5.6,.2,1.1,1,1.8,2.2,2.2,1.3,.3,3.8,.5,7.6,.5,3.1,0,5.2-.1,6.4-.3s2-.5,2.5-1c.3-.4,.6-.8,.7-1.3,.1-.5,.2-1.4,.3-2.6,.1-1.3,.1-2.3,.1-3.1v-12.9h8.9v12.9c-.1,4.5-.2,7.4-.4,8.8-.4,2.4-1.5,4.1-3.5,5.2-1.1,.6-2.7,1.1-4.8,1.3s-5.4,.3-10.1,.3c-3.5,0-6.3-.1-8.2-.2-1.9-.1-3.6-.3-5-.7-3.1-.7-5-2.5-5.5-5.4-.2-1.1-.3-2.1-.4-3-.1-.9-.1-3-.1-6.3v-12.9h.1Z"/>
    <path class="cls-1" d="M251.6,28.4h8.9v12.9c0,3,.1,4.8,.3,5.6,.2,1.1,1,1.8,2.2,2.2,1.3,.3,3.8,.5,7.6,.5,3.1,0,5.2-.1,6.4-.3,1.2-.2,2-.5,2.5-1,.3-.4,.6-.8,.7-1.3s.2-1.4,.3-2.6c.1-1.3,.1-2.3,.1-3.1v-12.9h8.9v12.9c-.1,4.5-.3,7.4-.5,8.8-.4,2.4-1.5,4.1-3.5,5.2-1.1,.6-2.7,1.1-4.8,1.3-2.1,.2-5.4,.3-10.1,.3-3.5,0-6.3-.1-8.2-.2-1.9-.1-3.6-.3-5-.7-3.1-.7-5-2.5-5.5-5.4-.2-1.1-.3-2.1-.4-3-.1-.9-.1-3-.1-6.3v-12.9h.2Z"/>
    <polygon class="cls-1" points="296.8 28.4 306.2 28.4 306.2 49.4 327 49.4 327 56.6 296.8 56.6 296.8 28.4"/>
  </g>
  <g class="cls-3">
    <path class="cls-1" d="M225.9,74.6c1.3,0,2.4-.4,3.2-1.3v-2.7h0v-.7h-3.4v1.4h1.7v1.3c-.4,.2-.9,.3-1.5,.3s-1.1-.2-1.5-.7c-.4-.4-.6-1-.6-1.7s.2-1.3,.7-1.8c.4-.4,1-.7,1.6-.7,.3,0,.6,.1,.9,.2,.3,.1,.6,.3,.9,.6l.9-1.3c-.8-.7-1.8-1.1-2.9-1.1s-2,.4-2.8,1.1c-.8,.8-1.2,1.7-1.2,2.9,0,1.1,.4,2.1,1.1,2.8,.9,1,1.8,1.4,2.9,1.4m11.4-4c0,.7-.2,1.2-.7,1.7-.4,.5-1,.7-1.6,.7h-.2l1.9-4.2c.4,.6,.6,1.1,.6,1.8m-1.9-2.4l-2,4.3c-.5-.5-.8-1.1-.8-1.8s.2-1.3,.7-1.8c.4-.5,1-.7,1.6-.7,.2-.1,.4-.1,.5,0m2.5,5.2c.8-.8,1.2-1.7,1.2-2.8,0-.7-.1-1.3-.4-1.8-.3-.6-.7-1-1.2-1.4l.8-1.7h-1.6l-.5,1.1c-.4-.1-.7-.1-1.1-.1-1.1,0-2.1,.4-2.9,1.1-.8,.8-1.2,1.7-1.2,2.8,0,.7,.2,1.4,.5,1.9,.3,.6,.8,1.1,1.4,1.4l-.8,1.8h1.5l.6-1.2c.3,.1,.6,.1,.9,.1,1-.1,2-.4,2.8-1.2m7.8-4.1c0,.4-.1,.7-.3,.9-.2,.2-.6,.3-1.2,.3h-1.2v-2.3h1.3c.5,0,.9,.1,1.2,.2,.1,.3,.2,.5,.2,.9m2.2,5.2l-1.9-2.7c1-.4,1.5-1.2,1.5-2.4,0-.9-.3-1.5-.8-1.9s-1.4-.6-2.6-.6h-2.9v7.7h1.7v-2.6h1.2l1.7,2.4h2.1v.1Zm5.8,0h5.7v-1.5h-3.9v-1.6h3.4v-1.5h-3.4v-1.6h3.8v-1.5h-5.5v7.7h-.1Zm13.3,0h1.7v-7.7h-1.7v4.9l-3.8-4.9h-1.6v7.7h1.7v-4.8l3.7,4.8Zm9.7-6.2h3.6v-1.5h-5.3v7.7h1.7v-3h3.4v-1.5h-3.4v-1.7Zm11.7,2.3c0,.7-.2,1.3-.7,1.7-.4,.5-1,.7-1.6,.7s-1.2-.2-1.6-.7-.7-1.1-.7-1.7c0-.7,.2-1.3,.7-1.8,.4-.5,1-.7,1.6-.7s1.2,.2,1.6,.7,.7,1.1,.7,1.8m.6,2.8c.8-.8,1.2-1.7,1.2-2.8s-.4-2.1-1.2-2.8c-.8-.8-1.7-1.1-2.9-1.1-1.1,0-2.1,.4-2.9,1.1-.8,.8-1.2,1.7-1.2,2.8s.4,2.1,1.2,2.8,1.7,1.1,2.9,1.1c1.1,0,2.1-.3,2.9-1.1m7.8-4.1c0,.4-.1,.7-.3,.9-.2,.2-.6,.3-1.2,.3h-1.3v-2.3h1.3c.5,0,.9,.1,1.2,.2,.2,.3,.3,.5,.3,.9m2.3,5.2l-1.9-2.7c1-.4,1.5-1.2,1.5-2.4,0-.9-.3-1.5-.8-1.9s-1.4-.6-2.6-.6h-2.9v7.7h1.7v-2.6h1.2l1.7,2.4h2.1v.1Zm3.9-5.1c-.2-.1-.3-.3-.3-.5s.1-.4,.2-.5c.2-.1,.4-.2,.7-.2,.7,0,1.4,.3,2.1,.8l.9-1.3c-.4-.3-.8-.6-1.3-.7-.5-.2-1-.3-1.5-.3-.8,0-1.4,.2-2,.6-.5,.4-.8,1-.8,1.7s.2,1.3,.6,1.6c.4,.3,1.1,.6,2,.8,.6,.1,.9,.3,1.1,.4s.3,.3,.3,.5-.1,.4-.3,.5c-.2,.1-.4,.2-.7,.2-.7,0-1.5-.4-2.3-1.1l-1,1.3c1,.9,2.1,1.4,3.3,1.4,.8,0,1.5-.2,2-.6s.8-1,.8-1.7-.2-1.2-.6-1.6-1-.6-1.7-.8c-.9-.2-1.3-.4-1.5-.5m11,2.8c-.7-1-1.2-1.7-1.5-2l3.1-3.4h-2.1l-2.9,3.2v-3.2h-1.7v7.7h1.7v-2.2l.8-.9,2.3,3h2c-.4-.4-1-1.2-1.7-2.2m3.4,2.3h5.7v-1.5h-3.9v-1.6h3.4v-1.5h-3.4v-1.6h3.8v-1.5h-5.5v7.7h-.1Zm13,0v-1.5h-3.3v-6.2h-1.7v7.7h5Z"/>
  </g>
</svg>
