<?xml version="1.0" encoding="UTF-8"?>
<svg xmlns="http://www.w3.org/2000/svg" viewBox="0 0 125 125">
  <g isolation="isolate">
    <g id="a" data-name="Layer 1">
      <g>
        <g>
          <g>
            <g>
              <path d="m88.58,106.07c.16-.22.09-19.99.09-30.34,0,0-.45-4.51-.45-4.52l-1.02-.03s-.34,4.54-.34,4.55c0,.05,0,.03,0,0v30.06c0,.66,1.28.88,1.72.28Z" fill="#545a73"/>
              <path d="m86.87,105.79v-30.02s0-.01,0-.03c0,0,.57-4.56.58-4.57h.44c-.03.28-.58,4.55-.57,4.56,0,.02,0,.03,0,.03,0,0,0,0,0,0v30.03c0,.33.35.56.71.62-.58.12-1.15-.19-1.15-.61Z" fill="#2e3346"/>
            </g>
            <g>
              <path d="m87.66,70.74s.02.18.05.44c.02.02.02.03.02.03.02.18.05.38.08.6v.08c.12.89.26,1.98.27,1.98v.03l.35,1.41.26,1.02v.03l8.92,36.04c.02.08.06.14.09.2.14.17.38.26.6.27.14.02.27,0,.27,0,.09-.01.18-.05.27-.08.03,0,.06-.02.09-.05.23-.09.42-.24.53-.45.02-.01.02-.05.02-.05.05-.08.05-.15.05-.15v-.09c0-.08-7.71-31.23-9.28-37.52-.17-.69-.27-1.08-.27-1.1s-.24-.59-.51-1.22c-.32-.78-.69-1.67-.69-1.67l-.62.12v.02l-.47.09Z" fill="#545a73"/>
              <path d="m97.59,112.41l-9.52-38.51s0-.01,0-.03c0,0-.39-3.12-.39-3.13l.47-.1c.04.29.39,3.1.39,3.1,0,.02,0,.03,0,.03,0,0,0,0,0,0l9.52,38.52c.07.29.38.44.68.46.08,0,.16,0,.21,0-.13.06-.27.1-.4.12,0,0-.13.02-.27,0-.3-.03-.61-.17-.69-.46Z" fill="#2e3346"/>
            </g>
            <g>
              <path d="m75.75,112.01v.09s0,.08.03.15c0,0,.02.03.03.05.11.21.3.36.53.45.03.03.06.05.09.05.09.03.18.06.27.08,0,0,.14.02.27,0,.23-.01.47-.11.6-.27.05-.06.08-.12.09-.2l9.16-37.08.11-.41v-.03l.09-.36.17-.63v-.03s.15-1.16.27-2.08c.02-.21.04-.42.06-.59,0-.02.02-.03.02-.05.03-.26.05-.42.05-.42l-.47-.11-.6-.12s-.35.81-.66,1.58c-.29.66-.54,1.29-.54,1.31s-.11.44-.3,1.19c-1.61,6.48-9.25,37.37-9.25,37.43Z" fill="#545a73"/>
              <path d="m77.66,112.41l9.52-38.51s0-.01,0-.03c0,0,.39-3.12.39-3.13l-.47-.1c-.04.29-.39,3.1-.39,3.1,0,.02,0,.03,0,.03,0,0,0,0,0,0l-9.52,38.52c-.07.29-.38.44-.68.46-.08,0-.16,0-.21,0,.13.06.27.1.4.12,0,0,.13.02.27,0,.3-.03.61-.17.69-.46Z" fill="#2e3346"/>
            </g>
            <path d="m85,74.59c1.13,1.13,4.27.99,5.22-.09-.17-.69-.27-1.08-.27-1.1s-.24-.59-.51-1.22c-.96-.46-2.44-.54-3.59-.09-.29.66-.54,1.29-.54,1.31s-.11.44-.3,1.19Z" fill="#2e3346"/>
            <g>
              <g>
                <path d="m90.66,71.75v1.07c0,.46-.31.91-.91,1.26-1.85,1.07-5.02.4-5.29-1.08-.03-.17-.01-1.09-.01-1.26,0-1.58,3.33-2.39,5.29-1.26.63.36.93.84.91,1.32,0-.01,0-.03,0-.04Z" fill="#636a87"/>
                <path d="m89.74,70.47c1.22.7,1.22,1.84.01,2.54-1.21.7-3.17.7-4.39,0-1.22-.7-1.22-1.84-.01-2.54,1.21-.7,3.17-.7,4.39,0Z" fill="#545a73"/>
                <path d="m89.39,70.68c1.02.59,1.03,1.55.01,2.14-1.02.59-2.67.59-3.69,0-1.02-.59-1.03-1.55-.01-2.14,1.02-.59,2.67-.59,3.69,0Z" fill="#545a73"/>
                <g>
                  <path d="m84.92,72.69v1.07c-.11-.1-.2-.2-.27-.31v-1.08c.07.11.16.22.27.32Z" fill="#545a73"/>
                  <path d="m85.47,73.07v1.07c-.1-.05-.19-.1-.27-.16v-1.07c.09.06.18.11.27.16Z" fill="#545a73"/>
                  <path d="m86.02,73.3v1.07c-.09-.03-.18-.06-.27-.1v-1.07c.09.04.18.07.27.1Z" fill="#545a73"/>
                  <path d="m86.57,73.45v1.06c-.09-.02-.18-.04-.27-.06v-1.06c.09.02.18.04.27.06Z" fill="#545a73"/>
                  <path d="m87.12,73.52v1.06c-.09,0-.18-.02-.27-.03v-1.06c.09.01.18.02.27.03Z" fill="#545a73"/>
                  <path d="m87.67,73.54v1.06c-.09,0-.18,0-.27,0v-1.06c.09,0,.18,0,.27,0Z" fill="#545a73"/>
                  <path d="m88.22,73.5v1.07c-.09.01-.18.02-.27.03v-1.07c.09,0,.18-.01.27-.03Z" fill="#545a73"/>
                  <path d="m88.77,73.4v1.07c-.09.02-.18.04-.27.06v-1.07c.09-.02.18-.04.27-.06Z" fill="#545a73"/>
                  <path d="m89.32,73.22v1.06c-.09.04-.18.07-.27.1v-1.07c.09-.03.18-.06.27-.1Z" fill="#545a73"/>
                  <path d="m89.87,72.94v1.06c-.08.05-.19.11-.27.15v-1.06c.09-.05.19-.1.27-.15Z" fill="#545a73"/>
                  <path d="m90.42,72.44v1.06c-.07.1-.16.2-.27.3v-1.06c.11-.09.2-.19.27-.29Z" fill="#545a73"/>
                </g>
              </g>
              <g>
                <path d="m89.13,70.95v.93c0,.23-.16.46-.46.64-.94.54-2.55.2-2.68-.55-.02-.09,0-.94,0-1.03,0-.8,1.69-1.21,2.68-.64.32.18.47.43.46.67,0,0,0-.01,0-.02Z" fill="#2e3346"/>
                <path d="m88.66,70.3c.62.36.62.93,0,1.29s-1.61.36-2.22,0c-.62-.36-.62-.93,0-1.29.61-.36,1.61-.36,2.22,0Z" fill="#636a87"/>
              </g>
            </g>
          </g>
          <g>
            <g>
              <g isolation="isolate">
                <polygon points="116.2 39.04 113.57 82.94 112.2 83.62 64.46 56.08 67.1 12.18 68.46 11.5 116.2 39.04" fill="#545a73"/>
                <g>
                  <path d="m102.63,38.44c1.47.85,2.56,2.97,2.43,4.73-.13,1.76-1.44,2.5-2.91,1.65-1.48-.85-2.56-2.97-2.43-4.73.13-1.76,1.43-2.5,2.91-1.65Z" fill="#fff"/>
                  <path d="m91.31,47.07c.86.5,1.5,1.74,1.42,2.77-.08,1.03-.84,1.46-1.7.96-.86-.5-1.5-1.74-1.42-2.77.08-1.03.84-1.46,1.7-.96Z" fill="#fff"/>
                  <polygon points="70.59 47.47 82.16 36.57 82.65 37.61 70.59 47.47" fill="#fff"/>
                  <path d="m91.83,48.64c1.09-.48,9.48-7.06,9.48-7.06l.36,1.09-9.84,5.98Z" fill="#fff"/>
                  <polygon points="84.89 37.04 91.04 49.15 84.55 38.59 84.89 37.04" fill="#fff"/>
                </g>
                <ellipse cx="83.44" cy="35.84" rx="2.87" ry="4.57" transform="translate(-7.29 39.64) rotate(-25.64)" fill="#e64e43"/>
                <polygon points="68.46 11.5 67.1 12.18 114.84 39.72 112.2 83.62 113.56 82.94 116.2 39.04 68.46 11.5" fill="#2e3346"/>
              </g>
              <g>
                <g isolation="isolate">
                  <path d="m112.32,81.81l-2.39,1.19-47.74-27.54,2.38-1.2c1.35.77,13.27,7.65,24.89,14.36,1.41.81,2.8,1.62,4.17,2.41.74.43,1.46.85,2.17,1.26,1.49.85,2.94,1.7,4.32,2.49,6.42,3.69,11.36,6.56,12.2,7.04Z" fill="#f1e4f2"/>
                  <polygon points="109.93 83 62.19 55.45 62.08 57.27 109.82 84.81 112.2 83.62 112.32 81.8 109.93 83" fill="#dfd3e0"/>
                </g>
                <g mix-blend-mode="multiply">
                  <polygon points="109.93 83 112.32 81.8 112.2 83.62 109.82 84.81 109.93 83" fill="#dfd3e0"/>
                </g>
              </g>
            </g>
            <g>
              <g mix-blend-mode="multiply">
                <path d="m93.63,71.02l-2.35.49-3.59-2.07,1.77-.83c1.41.81,2.8,1.62,4.17,2.41Z" fill="#dfd3e0"/>
              </g>
              <g isolation="isolate">
                <polygon points="91.44 69.02 92.87 68.31 92.72 70.8 91.29 71.51 91.44 69.02" fill="#c2413c"/>
                <polygon points="87.84 66.94 89.27 66.23 92.87 68.31 91.44 69.02 87.84 66.94" fill="#fa5b50"/>
                <polygon points="91.44 69.02 91.29 71.51 87.69 69.43 87.84 66.94 91.44 69.02" fill="#e64e43"/>
              </g>
            </g>
            <g>
              <g mix-blend-mode="multiply">
                <path d="m80.94,63.7l-2.14.33-3.59-2.09,1.42-.74c1.49.85,2.94,1.7,4.32,2.49Z" fill="#dfd3e0"/>
              </g>
              <g>
                <g isolation="isolate">
                  <polygon points="75.26 61.01 76.14 60.56 79.74 62.64 78.86 63.09 75.26 61.01" fill="#fff"/>
                  <polygon points="79.74 62.65 79.68 63.59 78.8 64.04 75.2 61.95 75.26 61.01 78.85 63.08 79.74 62.65" fill="#dfd3e0"/>
                </g>
                <g mix-blend-mode="multiply">
                  <polygon points="78.86 63.09 79.74 62.64 79.69 63.59 78.8 64.03 78.86 63.09" fill="#dfd3e0"/>
                </g>
              </g>
            </g>
            <g>
              <g mix-blend-mode="multiply">
                <path d="m100.12,74.77l-2.14.33-3.59-2.09,1.42-.74c1.49.85,2.94,1.7,4.32,2.49Z" fill="#dfd3e0"/>
              </g>
              <g>
                <g isolation="isolate">
                  <polygon points="94.44 72.07 95.32 71.63 98.92 73.71 98.04 74.15 94.44 72.07" fill="#fff"/>
                  <polygon points="98.92 73.71 98.86 74.65 97.98 75.1 94.38 73.02 94.44 72.07 98.03 74.15 98.92 73.71" fill="#dfd3e0"/>
                </g>
                <g mix-blend-mode="multiply">
                  <polygon points="98.04 74.15 98.92 73.71 98.87 74.66 97.98 75.1 98.04 74.15" fill="#dfd3e0"/>
                </g>
              </g>
            </g>
          </g>
        </g>
        <g>
          <g>
            <path d="m42.86,71.37c-.12,5.1-.28,7.13-.54,8.54-.16.94-2.04,9.18-2.16,11.63-.08,1.23-.09,3.06.26,5.28v.15c0,.05,0,.1,0,.15,0,.04,0,.09-.02.12,0,.13-.03.25-.08.38-.71.81-1.69,1.5-2.69,1.11-.05-.01-.11-.05-.18-.11,0,0,0,0-.01,0-.03-.02-.06-.05-.08-.07-.03-.03-.06-.05-.08-.09-.04-.04-.08-.08-.12-.13-.27-.37-.38-.83-.38-1.3-.01-.54-.03-.89-.08-1.62-.04-.46-.07-.74-.12-1.21-.49-3.98-1.72-5.85-.44-9.64.55-2.21,1.51-2.42,1.29-4.2-.1-2.38-.9-3.32-1.9-6.05-.01-.03-.05-.1-.05-.13-.75-2.02-1.62-5.18-2.31-9.94-.56-3.75,1-9.03,3.75-7.85,1.2.52,2.93,1.23,4.1,1.6.15.17.28.34.41.5.04.06.53,1.28.58,1.33.04.49.34,1.26.58,2.86.11.7.2,1.58.26,2.66.05.86.17.36.02,6.05Z" fill="#545a73"/>
            <path d="m42.58,62.66c-.24.29-.61.7-1.13,1.1-1.1.83-2.36,1.38-2.36,1.38,0,0-.28.52-.97,2.59-.73,2.2-1.09,2.67-1.14,3.93,0,.19-.09.75.05,1.48.91,4.8,2.45,4.49,1.5,9.17-.73,3.59-2.57,2.51-1.38,10.25.43,2.75.68,3.27,1.15,3.67.62.52,1.34.67,2.13.67,0,.02,0,.04,0,.06,0,.05,0,.1,0,.15,0,.04,0,.09-.02.12,0,.13-.03.25-.08.38-.71.81-1.69,1.5-2.69,1.11-.05-.01-.11-.05-.18-.11,0,0,0,0-.01,0-.03-.02-.06-.05-.08-.07-.03-.03-.06-.05-.08-.09-.04-.04-.08-.08-.12-.13-.15-.17-.29-.4-.37-.64,0-6.76-2.23-8.45-.65-13.13.55-2.21,1.51-2.42,1.29-4.2-.1-2.38-.9-3.32-1.9-6.05-.01-.03-.05-.1-.05-.13-.22-.6-.42-1.21-.61-1.84-.27-1.48.03-2.95.69-5.73.61-2.59.91-3.89,1.06-4.17,1.24-2.29,3.39-3.41,4.81-3.94.04.06.53,1.28.58,1.33.04.49.34,1.26.58,2.86Z" fill="#545a73" mix-blend-mode="multiply" opacity=".5"/>
          </g>
          <g>
            <path d="m36.69,97.58c.12-.34.04-.36.19-.19.14.16.34.36,1.14.71.65.29.8.35.93.26.1-.06.15-.17.17-.26,0,0,.06-1.21.7-1.45.64-.24.92.08,1.85,1.43.69,1.01.72,1.31,1.24,1.79.61.54,1.37,1.14,1.81,1.64.16.18.27.37.35.59.08.22.14.4.18.55,0,0,0,0,0,0,.1.65.24.95-.27,1.33-.5.37-2.26,1.01-3.39.67-1.13-.33-1.81-.76-2.32-1.67-.51-.91-1.21-1.67-2.01-2.02-.35-.15-.48-.63-.5-1.14-.27-.76-.2-1.93-.08-2.25Z" fill="#ede6ee"/>
            <path d="m36.77,99.83c.03.52.15.99.5,1.15.81.35,1.5,1.11,2.01,2.02.51.91,1.19,1.33,2.32,1.67,1.12.33,2.89-.3,3.39-.67.49-.36.37-.65.28-1.25.05.28,0,.49-.32.72-.5.37-2.26,1.01-3.39.67-1.12-.33-1.81-.75-2.32-1.67-.51-.91-1.21-1.67-2.01-2.02-.22-.1-.37-.32-.48-.61Z" fill="#ede6ee" mix-blend-mode="multiply"/>
          </g>
          <g>
            <path d="m36.58,66.56s-.12,1.83-2.76,10.77c-.46,1.55-.39,2.08-.84,3.77-.62,2.37-1.67,4.16-1.67,4.16-2.27,7.61-3.92,13.17-4,13.46t0,.01c-.21.73-.16.76-.32,1.39-.11,0-.23.01-.35.02-1-.01-2.27-.08-2.77-.12,0,0-.01,0-.02,0,0,0-.01,0-.02,0,.04-.86.19-2.68.28-4.59.3-7.24.59-8.71,1.6-10.35.02-.02.03-.05.05-.07.09-.17.46-.65.69-.89.05-.04.48-.57.48-.63.24-.41.4-.91.5-1.48,0-.01,0-.02,0-.04.03-.08.04-.17.06-.28,0-.01,0-.03,0-.04.19-1.28-.06-4.61-.19-5.81-.23-2.42-.47-4.84-.14-9.79.08-1.96.26-2.58.41-3.31,2.54-10.3,9.07-2.7,9.86-.56h0s.01.03.01.04c0,0,0,0,0,0h0c.03.07.03.12.06.17.41,1.34.13,2.98-.95,4.17Z" fill="#545a73"/>
            <g mix-blend-mode="multiply" opacity=".5">
              <path d="m38.31,63.02c-.81.41-2,.88-3.5,1.08-2.52.33-4.55-.29-5.57-.7-.16.49-.39,1.23-.62,2.14-2.21,8.54,1.87,16.55-.87,18.78-.32.27-1.08.73-1.61,1.74-.53,1.02-.51,1.99-.51,2.58,0,.95-.69,8.73-1.04,11.42-.35-.01-.74-.04-.74-.04,0,0,.22-3.33.28-4.59.24-5.83.41-9.01,1.89-10.76.73-.93,1.29-1.21,1.47-2.98,0-.01,0-.03,0-.04.15-1.79-.04-4.01-.17-5.79-.38-4.02-.32-4.51-.19-8.3.06-2.04.15-4.31.75-5.76,3.32-8.03,10.74-.36,10.42,1.22Z" fill="#545a73"/>
            </g>
          </g>
          <g>
            <path d="m27.63,104.61c-.04.68-.35,1.36-.35,1.36,0,.01-.01.03-.02.03-.47,1.1-1.26,1.33-2.43,1.3-.18,0-.35-.01-.5-.04-.19-.03-.4-.06-.63-.11h0c-.65-.27-1.1-.79-1.1-1.5,0-.06,0-.13,0-.19v-.03c.16-2.35.38-3.2,1.12-5.96.07-.1.14-.15.17-.14.02,0,.04.25.1.37.03.07.11.13.19.13.01,0,.02,0,.02,0,0,0,.02,0,.03,0,.07-.02.11-.05.16-.12.07-.12.15-.29.47-.47.19-.1.41-.12.57-.11h0c.32.01.66.1.93.31.4.31.63.68.63.68,0,0,.01-.21.11-.51.06.6.14,1.15.2,1.52,0,0,.33,2.49.33,2.49,0,.01,0,.03.02.5,0,0,0,.24-.02.49Z" fill="#ede6ee"/>
            <path d="m27.63,104.61c-.06.45-.16.82-.25,1.11,0,0,0,.01-.01.03-.02.06-.05.13-.07.19,0,.01-.01.02-.01.03,0,.01-.01.03-.02.03-.47,1.1-1.26,1.33-2.43,1.3-.18,0-.35-.01-.5-.04-.25-.03-.47-.07-.63-.11h0c-.65-.27-1.1-.79-1.1-1.5,0-.07,0-.15.01-.22.02.18.09.35.21.53.32.52,4.17,1.5,4.76-1.59.04-.22.06-.45.08-.24,0,0,0,.24-.02.49Z" fill="#ede6ee" mix-blend-mode="multiply"/>
            <path d="m27.55,104.46c-.02.12-.04.28-.13.45.05-.14.09-.29.13-.45Z" fill="#526aa1" mix-blend-mode="screen" opacity=".3"/>
          </g>
          <g>
            <path d="m57.07,49.71c.87-.21.31.19,1.18-.02.26.1.62.19.95.04.18-.08.26-.19.36-.28.65-.62,1.58-.14,2.29-.71.12-.1.3-.28.44-.61-.24-.42-.85-1.4-2.05-1.83-1.16-.42-2.53-.3-3.6.44-.49.38-.67,1.13-.44,1.84.14.42.42.83.88,1.13Z" fill="#ffcfcd"/>
            <path d="m57.07,49.71c.87-.21.31.19,1.18-.02.26.1.62.19.95.04.18-.08.26-.19.36-.28.65-.62,1.58-.14,2.29-.71.12-.1.3-.28.44-.61-.24-.42-.85-1.4-2.05-1.83-1.16-.42-2.53-.3-3.6.44-.49.38-.67,1.13-.44,1.84.14.42.42.83.88,1.13Z" fill="#ffcfcd" mix-blend-mode="multiply" opacity=".5"/>
          </g>
          <path d="m82.62,36.23l-25.99,14.6c-.43-.04-.71-.42-.7-.81,0-.12.03-.23.09-.33.3-.16.61-.32.93-.48,7.95-4.16,17.75-9.33,25.56-13.4.54-.17.55.17.12.42Z" fill="#2e3346"/>
          <path d="m59.13,49.26s.08.03.12.04c-.14-.22-.27-.44-.18-.58.06-.1.22-.14.33-.12.14.02.19.12.4.21.11.05.21.07.28.08,0,0,0,0,0,0-.3-.32-.56-.59-.13-.7.38-.1.75.16,1.07.38-.4-.42-.71-.72-.15-.91.22-.08.68.17,1.14.65.03-.04.06-.1.09-.17.05-.16.01-.29,0-.35.06.05.16.17.21.35.04.15,0,.28-.01.36-.02.08-.06.24-.17.35-.18.19-.49.23-.74.07.01.01.02.02.03.03-.06.43-.51.6-.86.39-.02.49-.53.6-.89.41.01.02.02.04.04.05-.34.54-.93.34-1.24-.21-.16-.28-.1-.43.23-.46.21-.02.37.08.45.13Z" fill="#ffcfcd"/>
          <path d="m60.05,46.35c.29.23.57.37.82.47.34.14.58.17.6.3.02.14-.25.38-.53.39-.36.01-.82-.19-1.11-.23-.11-.01-.26,0-.44.04-.46.12-.49.38-.92.57-.11.05-.56.25-.97.04-.05-.02-.37-.19-.44-.53-.07-.37.24-.67.39-.82.34-.33.73-.43.93-.46.77-.12,1.39.1,1.66.22Z" fill="#ffcfcd"/>
          <g>
            <path d="m56.95,49.21c-.32.16-.62.32-.93.48-.06.1-.09.22-.09.33-.83.16-1.75.3-2.72.42-3.19.36-6.71.43-7.93.13-.71-.19-1.64-.42-2.48-1.16-.77-.67-.8-1.19-1.56-2.77-.58-1.22-1.1-2.03-1.54-2.72-.55-.94-.93-1.67-1-2.81-.04-.64.06-1.16.36-1.59.51-.7,1.67-.45,1.96-.49.97,1.71,2.23,3.58,3.9,5.45.46.51.93,1,1.39,1.45.54.17,1.1.33,1.7.48,3.39.81,6.45.57,8.78.1-.1.2-.42.9-.23,1.78.07.38.23.7.39.93Z" fill="#ae3338"/>
            <path d="m53.21,50.44c-3.19.36-6.71.43-7.93.13-.71-.19-1.64-.42-2.48-1.16-.77-.67-.8-1.19-1.56-2.77-.58-1.22-1.1-2.03-1.54-2.72l1.3-2.56c.82,1.04,1.42,1.93,1.81,2.54.69,1.08,1.06,1.8,1.9,2.94.44.6.83,1.07,1.09,1.36.59.58,1.42,1.25,2.54,1.72,2.56,1.09,4.99.51,4.87.52Z" fill="#8e2a2e"/>
          </g>
          <g>
            <path d="m27.74,46.61s.02.04.02.06c.02.03.02.06.03.11.7.8,1.86,2.32,2.32,4.35.45,1.94.2,3.57,0,4.44h0c0,.43-2.03,4.6-1.83,5.28.39,1.41,3.26,2.07,4.59,2.27.39.06.78.11,1.18.15,3.59.33,7.58-.34,8.47-2.17.17-.62-.56-2.61-.82-3.43,0,0,0,0,0,0-.45-1.22-.61-2.2-.56-3.02.05-1.33.75-2.67,1.64-3.73,0,0,0,0,0,0,0,0,0-.02,0-.02h0c.58-.84,1.12-1.7,1.21-2.89.03-.51-.3-1.45-.68-2.34-.31-.71-.65-1.38-.87-1.75-1.69-2.83-.94-4.02-1.44-4.9,0,0-.15-.22-.34-.4-1.56-1.43-4.78-.2-8.03,1.07-3.07,1.2-4.61,1.84-5.19,3.29-.46,1.16-.13,2.23.27,3.62Z" fill="#ae3338"/>
            <path d="m32.55,49.97c-2.28-10.72-3.5-3.5-2.44,1.16.45,1.94.2,3.57,0,4.44h0c0,.43-2.03,4.6-1.83,5.28.39,1.41,3.26,2.07,4.59,2.27.39.06.78.11,1.18.15-1.7-2.5-1.48-3.96-1.22-4.66.31-.86.95-1.35,4.79-3.82,1.99-1.28,3.32-2.41,3.32-2.41,0,0-3.72,1.97-6.22.6-1.06-.58-1.92-1.81-2.17-3.02Z" fill="#8e2a2e"/>
          </g>
          <g>
            <g>
              <path d="m10.88,46.49c.29.05.7.11,1.21.09-.37.19-.69.24-.9.26-.56.03-.9-.18-1.19.04-.12.09-.23.25-.2.38.05.19.39.24.79.3.19.02.42.06.77.04.27,0,.66-.05,1.11-.19-.49.37-.91.46-1.21.47-.29.02-.59-.04-.69.13-.53.87,2.48.42,3.76.26h0c.1-.02.18-.02.25-.03.49-.08.86-.15,1.35-.22.14.08.39.32.53.41.72.02,1.35-.51,1.52-1.03.17-.52-.02-1.12-.09-1.24-.19-.34-.55-.62-.7-.71h-.01s-1.29-.67-1.29-.67c-.83-.67-1.19-1.02-1.36-1.22-.13-.15-.23-.24-.42-.4-.34-.28-.53.02-.44.5.05.15.14.32.26.52.1.14.2.26.29.35-.31.07-.66.13-1.03.16-.05,0-.1,0-.14,0-1.08.08-2-.08-2.68-.25-.11.15-.19.32-.15.48.17.59,1.98.53,2.01.63,0,.04-.6.16-1.33.08-.36-.05-1.31-.2-1.49-.05-.11.1-.16.29-.11.44.03.07.8.32,1.54.46Z" fill="#ffcfcd"/>
              <path d="m14.36,48.26c.1-.02.18-.02.25-.03.49-.08.86-.15,1.35-.22.14.08.39.32.53.41.72.02,1.35-.51,1.52-1.03.17-.52-.02-1.12-.09-1.24-.19-.34-.55-.62-.7-.71.07.09.55,1.04-.16,1.8-.76.81-.71.39-1.24.46-.41.05-1,.35-1.47.56Z" fill="#ffcfcd" mix-blend-mode="multiply" opacity=".5"/>
              <path d="m13.09,44.68c.29.4.72.96,1.04,1.18.52.38,1.05.24,1.05.24,0,0-.19-.08-.44-.21-.25-.14-.48-1.37-.48-1.37-.31.07-.66.13-1.03.16-.05,0-.1,0-.14,0Z" fill="#ffcfcd" mix-blend-mode="multiply" opacity=".5"/>
            </g>
            <path d="m16.06,48.08c.2.15,1.82,1.28,3.26,2.37,2.03,1.54,3.66,3.02,5.28,3.4.61.14,1.07.1,1.27.07,2.59-.37,4.87-5.69,5.3-7.14.16-.51.27-1.03.32-1.58.08-1.06.03-2.01-.15-2.72-.06-.22-.14-.42-.22-.6-.17-.36-.39-.61-.65-.73-.86-.38-2.13.66-2.34.84-.97.8-1.22,1.8-1.75,3.41-.36,1.14-.65,2.31-1.43,4.29-1.42-.76-7.27-4.03-7.73-4.25.16.15,1.01,1.25.31,2.21-.04.06-.09.12-.13.17-.56.62-1.15.38-1.35.26Z" fill="#ae3338"/>
          </g>
          <g>
            <path d="m31.9,40.23c.56,2.16,2.42,3.94,4.29,4.97.04-.11.07-.32.11-.54.09-.48.18-.79.59-1.13.85.39,1.84.05,2.29-.75.56.22,1.2.11,1.64-.34-.28,0-.78-.04-1.27-.34-1.19-.73-1.18-2.28-1.18-2.38-2.16.17-4.32.34-6.47.51Z" fill="#8e2a2e"/>
            <g>
              <path d="m38.7,41.12c.17-.45-.18-.63-.61-2.1-.48-1.67-.15-1.85-.58-2.86-.61-1.42-1.98-2.74-2.7-2.44-.1.04-.18.09-.24.15-.55.54-.56,1.44-.55,1.75.03.71.26,1.04.13,1.69-.07.37-.36,1.16-.8,1.88-.04.57-.07,1.14-.11,1.71,0,0,.16.38.4.68.99,1.25,4.58.86,5.06-.44Z" fill="#ffcfcd"/>
              <path d="m38.7,41.12c.21-.55-.25-.72-.69-2.5-.36-1.43-.15-1.6-.5-2.46-.58-1.44-1.96-2.74-2.7-2.44-.1.04-.18.09-.24.15-.55.54-.56,1.44-.55,1.75.03.71.26,1.04.13,1.69-.07.37-.36,1.16-.8,1.88-.04.57-.07,1.14-.11,1.71,0,0,.16.38.4.68.98,1.23,4.57.87,5.06-.44Z" fill="#ffcfcd" mix-blend-mode="multiply" opacity=".5"/>
            </g>
            <path d="m35.2,42.52c.87.66,2.69.83,3.01.67.77-.38.7-1.79.69-1.91-.56-.02-.7-.24-.8-.27-.15-.04-.38.27-.58.74-.03.01-.07.03-.13.05-1.36.47-2.48.09-2.55.32-.04.1.16.26.36.41Z" fill="#ede6ee"/>
            <path d="m35.2,42.52c.87.66,2.69.83,3.01.67.77-.38.7-1.79.69-1.91-.56-.02-.7-.24-.8-.27-.15-.04-.38.27-.58.74-.03.01-.07.03-.13.05-1.36.47-2.48.09-2.55.32-.04.1.16.26.36.41Z" fill="#ede6ee" mix-blend-mode="multiply"/>
            <path d="m31.82,40.05c.77,1.91,2.25,3.32,4.04,4.07.09-.42.3-.95.59-1.4.99-1.54,1.85-.96,3.11-.78.64.09,1.22.11,1.71.09-2.12-1.02-1.69-1.98-3.41-3.74-.01,1.41-.03,1.33-.35,3.46-2.04.11-3.84-1.11-4.3-3.15-.81.04-1.37.68-1.4,1.45Z" fill="#ede6ee"/>
            <g>
              <path d="m41.31,32.09c-.44,1.16-.77,2.03-1.07,2.84-.33.9-.53,1.43-1.08,1.84-.48.37-1.02.48-1.38.52-.79.97-1.88,1.59-2.99,1.8-.06,0-.12.02-.19.02-.44.07-.92.07-1.46,0-2.15-.32-2.55-5.38-2.46-3.93-.03-.44-.13-.1.18-2.3.29-2.06.52-2.51.75-2.84.35-.47.77-.74,1.06-.9,1.58-.19,3.15-.39,4.73-.59l3.92,3.53Z" fill="#ffcfcd"/>
              <path d="m39.64,35.71c-.16.74-.88,1.49-1.87,1.58-.79.97-1.88,1.59-2.99,1.8-.06,0-.12.02-.19.02,1.35-.73,2.21-2,2.2-3.33,0-.8-.33-1.43-.55-1.78-2.01-.15-3.62-1.61-3.99-3.56.56-.12,2.45-.44,4.38.61,0,0,2.03,1.11,2.88,3.42.15.41.23.81.13,1.24Z" fill="#ffcfcd" mix-blend-mode="multiply" opacity=".5"/>
              <g>
                <path d="m41.7,40.14c-.32-.33-.93-.9-1.85-1.27-.71-.28-1.33-.33-1.75-.35l-.23-.23c-.03-.33-.06-.67-.1-1,0,0,.04-.01.12-.03.14-.03.29-.09.42-.14.14-.06.3-.12.41-.17h.01c.07-.04.13-.09.17-.14.06-.06.12-.13.16-.19.01-.01.03-.03.04-.04.06-.1.55-.8.25-1.45-.16-.33-.54-.68-.93-.62-.22.03-.38.19-.39.2-.12.1-.16.23-.2.39-.1.29-.13.43-.13.8.01.87-.96,2.06-1.09,2-.06-.03.07-.29.25-1.14.06-.3.1-.68.12-1.13.01-.17.01-.29,0-.32-.03-1.78-1.39-4.95-.72-1.72-1.7-.17-3.19-1.27-3.91-2.88-.74.58-1.1,1.32-1.29,2.19-.32,1.43-.23,2.45-.36,2.48-.12,0-.13-.61-.25-1.16-.12-.54-.12-1.01-.1-1.35-.01-.26-.12-3.4,2.4-5.27,1.97-1.58,4.71-1.67,6.56-.23,0,0,.06.04.16.13.04.04.1.1.17.16.35.32.85.9,1.25,1.72.96,1.88.72,3.77.61,4.75-.01.1-.03.19-.04.28-.13.72-.36,1.14-.51,1.58t-.01.03c-.12.3-.17.62-.12,1.07.06.55.28,1.29.33,1.51.19.67.41,1.2.57,1.58Z" fill="#a14c50"/>
                <path d="m41.7,40.14c-.32-.33-.93-.9-1.85-1.27-.71-.28-1.33-.33-1.75-.35l-.23-.23c-.03-.33-.06-.67-.1-1,0,0,.04-.01.12-.03.1-.04.26-.09.42-.14.14-.06.3-.12.41-.17h.01c.07-.04.13-.09.17-.14.07-.06.13-.12.16-.19.01-.01.03-.03.04-.04.06-.1.55-.8.25-1.45-.16-.33-.54-.68-.93-.62-.22.03-.38.19-.39.2-.01.01-.04.04-.06.03-.13-.06,1.3-2.14,1.01-4.17-.38-2.69-3.23-4.27-6.24-2.98,1.97-1.58,4.71-1.67,6.56-.23,0,0,.06.04.16.13.04.04.12.1.17.16.35.32.85.9,1.25,1.72.96,1.88.72,3.77.61,4.75-.01.1-.03.19-.04.28-.13.78-.35,1.23-.51,1.58t-.01.03c-.14.35-.23.62-.12,1.07.06.55.28,1.29.33,1.51.19.67.41,1.2.57,1.58Z" fill="#a14c50" mix-blend-mode="multiply" opacity=".3"/>
              </g>
            </g>
          </g>
        </g>
      </g>
    </g>
  </g>
</svg>